<svg width="48" height="48" viewBox="0 0 48 48" xmlns="http://www.w3.org/2000/svg" role="img" aria-labelledby="title">
  <title>Film Manager Logo</title>
  <defs>
    <linearGradient id="filmGradient" x1="8%" x2="88%" y1="12%" y2="92%">
      <stop offset="0%" stop-color="#1f5130" />
      <stop offset="100%" stop-color="#4caf6f" />
    </linearGradient>
  </defs>
  <rect x="6" y="9" width="36" height="30" rx="6" fill="url(#filmGradient)" />
  <rect x="12" y="15" width="24" height="18" rx="3" fill="#ffffff" fill-opacity="0.9" />
  <path d="M18 18h11c1.1 0 2 .9 2 2s-.9 2-2 2h-7v3h7c1.1 0 2 .9 2 2s-.9 2-2 2H18c-1.1 0-2-.9-2-2V20c0-1.1.9-2 2-2z" fill="#1f5130" />
  <circle cx="14" cy="12" r="2" fill="#ffffff" fill-opacity="0.85" />
  <circle cx="34" cy="12" r="2" fill="#ffffff" fill-opacity="0.85" />
  <circle cx="14" cy="36" r="2" fill="#ffffff" fill-opacity="0.85" />
  <circle cx="34" cy="36" r="2" fill="#ffffff" fill-opacity="0.85" />
</svg>
